<mxfile host="Electron" modified="2023-09-30T14:16:45.567Z" agent="Mozilla/5.0 (Windows NT 10.0; Win64; x64) AppleWebKit/537.36 (KHTML, like Gecko) draw.io/21.7.5 Chrome/114.0.5735.289 Electron/25.8.1 Safari/537.36" etag="Kdlx9nMpuEUCMwp1zyXN" version="21.7.5" type="device">
  <diagram name="Page-1" id="Bhvv7uikKA-04Uj9TCyd">
    <mxGraphModel dx="1434" dy="844" grid="1" gridSize="10" guides="1" tooltips="1" connect="1" arrows="1" fold="1" page="1" pageScale="1" pageWidth="1500" pageHeight="1500" math="0" shadow="0">
      <root>
        <mxCell id="0" />
        <mxCell id="1" parent="0" />
        <mxCell id="syiyN46AXmsJeliIee0B-1" value="" style="shape=actor;whiteSpace=wrap;html=1;" parent="1" vertex="1">
          <mxGeometry x="370" y="110" width="70" height="90" as="geometry" />
        </mxCell>
        <mxCell id="syiyN46AXmsJeliIee0B-4" style="edgeStyle=orthogonalEdgeStyle;rounded=0;orthogonalLoop=1;jettySize=auto;html=1;entryX=0.5;entryY=1;entryDx=0;entryDy=0;startArrow=classic;startFill=1;" parent="1" source="syiyN46AXmsJeliIee0B-2" target="syiyN46AXmsJeliIee0B-1" edge="1">
          <mxGeometry relative="1" as="geometry" />
        </mxCell>
        <mxCell id="syiyN46AXmsJeliIee0B-6" style="edgeStyle=orthogonalEdgeStyle;rounded=0;orthogonalLoop=1;jettySize=auto;html=1;entryX=0.5;entryY=0;entryDx=0;entryDy=0;startArrow=classic;startFill=1;" parent="1" source="syiyN46AXmsJeliIee0B-2" target="syiyN46AXmsJeliIee0B-7" edge="1">
          <mxGeometry relative="1" as="geometry">
            <mxPoint x="160" y="430" as="targetPoint" />
          </mxGeometry>
        </mxCell>
        <mxCell id="syiyN46AXmsJeliIee0B-2" value="Edit An Expense In Budget Table" style="shape=step;perimeter=stepPerimeter;whiteSpace=wrap;html=1;fixedSize=1;" parent="1" vertex="1">
          <mxGeometry x="180" y="270" width="140" height="80" as="geometry" />
        </mxCell>
        <mxCell id="syiyN46AXmsJeliIee0B-10" style="edgeStyle=orthogonalEdgeStyle;rounded=0;orthogonalLoop=1;jettySize=auto;html=1;entryX=0.5;entryY=0;entryDx=0;entryDy=0;" parent="1" source="syiyN46AXmsJeliIee0B-7" target="syiyN46AXmsJeliIee0B-9" edge="1">
          <mxGeometry relative="1" as="geometry" />
        </mxCell>
        <UserObject label="Budgeting Controller" tooltip="Component&#xa;" id="syiyN46AXmsJeliIee0B-7">
          <mxCell style="rounded=0;whiteSpace=wrap;html=1;" parent="1" vertex="1">
            <mxGeometry x="100" y="450" width="120" height="60" as="geometry" />
          </mxCell>
        </UserObject>
        <mxCell id="syiyN46AXmsJeliIee0B-9" value="Update &lt;br&gt;Expenses" style="shape=process;whiteSpace=wrap;html=1;backgroundOutline=1;" parent="1" vertex="1">
          <mxGeometry x="100" y="580" width="120" height="60" as="geometry" />
        </mxCell>
        <mxCell id="syiyN46AXmsJeliIee0B-14" style="edgeStyle=orthogonalEdgeStyle;rounded=0;orthogonalLoop=1;jettySize=auto;html=1;entryX=1;entryY=0.5;entryDx=0;entryDy=0;" parent="1" source="syiyN46AXmsJeliIee0B-11" target="syiyN46AXmsJeliIee0B-9" edge="1">
          <mxGeometry relative="1" as="geometry" />
        </mxCell>
        <mxCell id="syiyN46AXmsJeliIee0B-11" value="User Management Controller" style="rounded=0;whiteSpace=wrap;html=1;" parent="1" vertex="1">
          <mxGeometry x="280" y="580" width="120" height="60" as="geometry" />
        </mxCell>
        <mxCell id="syiyN46AXmsJeliIee0B-13" style="edgeStyle=orthogonalEdgeStyle;rounded=0;orthogonalLoop=1;jettySize=auto;html=1;entryX=1;entryY=0.5;entryDx=0;entryDy=0;" parent="1" source="syiyN46AXmsJeliIee0B-12" target="syiyN46AXmsJeliIee0B-11" edge="1">
          <mxGeometry relative="1" as="geometry" />
        </mxCell>
        <mxCell id="syiyN46AXmsJeliIee0B-12" value="Get Profile" style="shape=process;whiteSpace=wrap;html=1;backgroundOutline=1;" parent="1" vertex="1">
          <mxGeometry x="450" y="580" width="120" height="60" as="geometry" />
        </mxCell>
        <mxCell id="syiyN46AXmsJeliIee0B-16" style="edgeStyle=orthogonalEdgeStyle;rounded=0;orthogonalLoop=1;jettySize=auto;html=1;entryX=1;entryY=0.5;entryDx=0;entryDy=0;" parent="1" source="syiyN46AXmsJeliIee0B-15" target="syiyN46AXmsJeliIee0B-7" edge="1">
          <mxGeometry relative="1" as="geometry" />
        </mxCell>
        <mxCell id="syiyN46AXmsJeliIee0B-15" value="Get Expenses" style="shape=process;whiteSpace=wrap;html=1;backgroundOutline=1;" parent="1" vertex="1">
          <mxGeometry x="320" y="450" width="120" height="60" as="geometry" />
        </mxCell>
        <mxCell id="syiyN46AXmsJeliIee0B-19" value="Budget" style="shape=cylinder3;whiteSpace=wrap;html=1;boundedLbl=1;backgroundOutline=1;size=15;" parent="1" vertex="1">
          <mxGeometry x="630" y="445" width="90" height="90" as="geometry" />
        </mxCell>
        <mxCell id="syiyN46AXmsJeliIee0B-26" style="edgeStyle=orthogonalEdgeStyle;rounded=0;orthogonalLoop=1;jettySize=auto;html=1;" parent="1" source="syiyN46AXmsJeliIee0B-22" target="syiyN46AXmsJeliIee0B-12" edge="1">
          <mxGeometry relative="1" as="geometry" />
        </mxCell>
        <mxCell id="syiyN46AXmsJeliIee0B-22" value="User Managment&lt;br&gt;Library" style="whiteSpace=wrap;html=1;aspect=fixed;" parent="1" vertex="1">
          <mxGeometry x="620" y="590" width="110" height="110" as="geometry" />
        </mxCell>
        <mxCell id="syiyN46AXmsJeliIee0B-25" style="edgeStyle=orthogonalEdgeStyle;rounded=0;orthogonalLoop=1;jettySize=auto;html=1;entryX=1;entryY=0.5;entryDx=0;entryDy=0;" parent="1" source="syiyN46AXmsJeliIee0B-24" target="syiyN46AXmsJeliIee0B-15" edge="1">
          <mxGeometry relative="1" as="geometry" />
        </mxCell>
        <mxCell id="syiyN46AXmsJeliIee0B-24" value="Budgeting Library" style="whiteSpace=wrap;html=1;aspect=fixed;" parent="1" vertex="1">
          <mxGeometry x="500" y="425" width="110" height="110" as="geometry" />
        </mxCell>
        <mxCell id="syiyN46AXmsJeliIee0B-27" value="User" style="shape=cylinder3;whiteSpace=wrap;html=1;boundedLbl=1;backgroundOutline=1;size=15;" parent="1" vertex="1">
          <mxGeometry x="740" y="620" width="90" height="90" as="geometry" />
        </mxCell>
      </root>
    </mxGraphModel>
  </diagram>
</mxfile>
